Coordinates
version=1
nRows=14
nColumns=42
inDegrees=yes

Units are S.I. units (second, meters, Newtons, ...)
If the header above contains a line with 'inDegrees', this indicates whether rotational values are in degrees (yes) or radians (no).

endheader
time	pelvis_tilt	pelvis_list	pelvis_rotation	pelvis_tx	pelvis_ty	pelvis_tz	hip_flexion_r	hip_adduction_r	hip_rotation_r	knee_angle_r	knee_adduction_r	knee_angle_r_beta	ankle_angle_r	subtalar_angle_r	mtp_angle_r	hip_flexion_l	hip_adduction_l	hip_rotation_l	knee_angle_l	knee_adduction_l	knee_angle_l_beta	ankle_angle_l	subtalar_angle_l	mtp_angle_l	lumbar_extension	lumbar_bending	lumbar_rotation	arm_flex_r	arm_add_r	arm_rot_r	elbow_flex_r	pro_sup_r	wrist_flex_r	wrist_dev_r	arm_flex_l	arm_add_l	arm_rot_l	elbow_flex_l	pro_sup_l	wrist_flex_l	wrist_dev_l
      2.12000000	     13.41654475	      1.15388010	      2.98722966	     -0.47258917	      0.91197939	      0.30264986	    -25.14391592	      3.47355150	    -36.42921409	     14.87199273	     -7.06894437	      0.25956524	     33.61709183	     37.03823137	     -7.51604255	     19.82194536	      2.60862187	    -25.80108206	     27.74204794	    -12.88392152	      0.48419008	      9.03563844	     25.72154871	     -7.51604255	    -44.26384776	     -0.40947274	     -0.51906734	     13.08298365	    -12.55287700	      1.35862348	     40.32416491	     90.00000001	      0.00000000	      0.00000000	     -6.74034130	     -9.94721634	     14.94093840	     46.99021916	     90.00000001	      0.00000000	      0.00000000
      2.13000000	     13.48467188	      1.27630503	      2.95053224	     -0.46406353	      0.91164776	      0.30169284	    -25.67788979	      3.33106171	    -36.14721722	     15.11663588	     -7.34633590	      0.26383507	     33.50699304	     36.89504897	     -7.51597859	     19.67109261	      2.98067042	    -25.40580862	     28.44688560	    -13.25354684	      0.49649182	      8.79468910	     25.68031860	     -7.51597859	    -44.23200785	     -0.75835734	     -0.53682889	     12.62633230	    -12.32076545	      1.41280812	     40.19753023	     90.00000001	      0.00000000	      0.00000000	     -6.79913252	     -9.96847869	     14.93752745	     46.91212811	     90.00000001	      0.00000000	      0.00000000
      2.14000000	     13.56620694	      1.42409025	      3.14648059	     -0.45570042	      0.91163160	      0.30044363	    -26.35744116	      3.15868904	    -36.05038711	     15.23587065	     -7.22369241	      0.26591611	     32.94136020	     36.86308591	     -7.51479362	     19.58007578	      3.38740006	    -24.19993340	     29.58795314	    -13.21224914	      0.51640720	      7.86121608	     23.25260210	     -7.51479362	    -44.24780076	     -1.00085552	     -0.81003916	     12.36000694	    -12.05774615	      1.56744015	     39.98534820	     90.00000001	      0.00000000	      0.00000000	     -6.53740923	    -10.12261204	     15.09617791	     46.14261241	     90.00000001	      0.00000000	      0.00000000
      2.15000000	     13.66394911	      1.59963783	      3.21238572	     -0.44727098	      0.91189861	      0.29924801	    -26.84252246	      3.01585104	    -35.82469793	     15.54237314	     -7.57048394	      0.27126558	     32.79720897	     36.86901350	     -7.51475956	     19.36581400	      3.75816476	    -23.94836660	     30.32963375	    -13.54773184	      0.52935197	      7.80026988	     23.27070786	     -7.51475956	    -44.29294854	     -1.33588227	     -0.90047822	     11.91107014	    -11.83123293	      1.62110475	     39.83514481	     90.00000001	      0.00000000	      0.00000000	     -6.50354045	    -10.18056263	     15.08505100	     46.05816344	     90.00000001	      0.00000000	      0.00000000
      2.16000000	     13.75856616	      1.78541299	      3.33494875	     -0.43888576	      0.91237320	      0.29795054	    -27.28201484	      2.87328154	    -35.57891559	     15.94308600	     -7.88874221	      0.27825934	     32.56383733	     36.83919079	     -7.51472975	     19.16660146	      4.09701727	    -23.73018518	     31.16980479	    -13.83798010	      0.54401572	      7.82794239	     23.22109575	     -7.51472975	    -44.34846358	     -1.64222009	     -1.05048312	     11.46982452	    -11.57782511	      1.68519926	     39.68747882	     90.00000001	      0.00000000	      0.00000000	     -6.44403533	    -10.29145211	     15.06754370	     45.93206635	     90.00000001	      0.00000000	      0.00000000
      2.17000000	     13.57930636	      1.82478617	      3.50600572	     -0.43089237	      0.91267881	      0.29651916	    -27.12741267	      2.64417914	    -35.49946772	     17.01305067	     -8.03944038	      0.29693375	     31.30781082	     36.14574099	     -7.51393806	     19.36518538	      4.25429500	    -22.38641913	     32.59123047	    -13.44587726	      0.56882428	      8.46925860	     20.31919666	     -7.51393806	    -44.13617080	     -1.77134012	     -1.15739493	     11.25446911	    -11.40862789	      2.04114710	     39.38856623	     90.00000001	      0.00000000	      0.00000000	     -5.97917779	    -10.26365003	     15.24523572	     44.59791040	     90.00000001	      0.00000000	      0.00000000
      2.18000000	     13.56278856	      1.95220420	      3.63275969	     -0.42269238	      0.91337617	      0.29505640	    -27.17965752	      2.39361080	    -35.36414944	     17.94581229	     -8.32755766	      0.31321351	     30.58693664	     35.80671080	     -7.51372718	     19.22790697	      4.48082681	    -21.82231636	     33.54563061	    -13.39915396	      0.58548170	      9.20929095	     19.66814191	     -7.51372718	    -44.08999382	     -1.99814320	     -1.25565712	     10.85722834	    -11.21572522	      2.15786225	     39.25168574	     90.00000001	      0.00000000	      0.00000000	     -5.89656871	    -10.35635581	     15.22142743	     44.47265459	     90.00000001	      0.00000000	      0.00000000
      2.19000000	     13.57630218	      2.07276945	      3.75899043	     -0.41456998	      0.91432193	      0.29352793	    -27.19068590	      2.10767588	    -35.19333098	     19.02539649	     -8.57696214	      0.33205581	     29.81787183	     35.43902284	     -7.51357904	     18.94965370	      4.68841604	    -20.98801240	     34.41105638	    -13.11101916	      0.60058623	      9.95434971	     18.88263959	     -7.51357904	    -44.09555937	     -2.20466515	     -1.37844984	     10.51487547	    -11.00726740	      2.30513002	     39.12706427	     90.00000001	      0.00000000	      0.00000000	     -5.78121792	    -10.44225707	     15.21424059	     44.26183685	     90.00000001	      0.00000000	      0.00000000
      2.20000000	     13.48125542	      2.18213760	      3.86630614	     -0.40649261	      0.91519865	      0.29193258	    -26.93531422	      1.74054389	    -35.18120527	     20.36133587	     -8.89339064	      0.35537235	     28.70486797	     34.80418836	     -7.51336700	     18.65771585	      5.06061257	    -19.48179215	     35.11031721	    -12.64923954	      0.61279064	     10.94240844	     17.16100709	     -7.51336700	    -43.96421385	     -2.41078433	     -1.39922919	     10.08668517	    -10.86279953	      2.55390309	     38.96405073	     90.00000001	      0.00000000	      0.00000000	     -5.66097422	    -10.46447023	     15.22553672	     43.95343132	     90.00000001	      0.00000000	      0.00000000
      2.21000000	     13.29906379	      2.33499326	      4.07316258	     -0.39876428	      0.91623014	      0.29020190	    -26.51943508	      1.46387436	    -35.00791107	     21.65932866	     -9.32282639	      0.37802660	     27.80848922	     33.87268436	     -7.51256069	     18.25041778	      5.73564678	    -16.26379984	     35.71408658	    -11.43085530	      0.62332840	     10.70409185	     11.64818808	     -7.51256069	    -43.80751140	     -2.59622194	     -1.55462811	      9.71240998	    -10.78789154	      3.29733883	     38.84203474	     90.00000001	      0.00000000	      0.00000000	     -5.36166269	    -10.50925634	     15.17416263	     43.44762221	     90.00000001	      0.00000000	      0.00000000
      2.22000000	     13.26371852	      2.40844347	      4.14770490	     -0.39066209	      0.91726696	      0.28857583	    -26.22304362	      1.03715643	    -34.94706916	     23.19051357	     -9.56131052	      0.40475082	     26.59560703	     33.39679069	     -7.51240793	     17.80375840	      5.93099287	    -15.37564209	     36.18074674	    -11.01868894	      0.63147316	     11.55533048	     11.14870888	     -7.51240793	    -43.72352806	     -2.75626945	     -1.56942419	      9.31452931	    -10.66329176	      3.44068891	     38.74224834	     90.00000001	      0.00000000	      0.00000000	     -5.35390441	    -10.57236512	     15.14620765	     43.44168731	     90.00000001	      0.00000000	      0.00000000
      2.23000000	     13.03456531	      2.48188758	      4.28826096	     -0.38272516	      0.91799614	      0.28692783	    -25.53338391	      0.61286870	    -35.11426408	     24.93333851	     -9.99615592	      0.43516885	     24.97761721	     32.29455476	     -7.51212653	     17.52506066	      6.30738764	    -14.02430018	     36.54652985	    -10.60730025	      0.63785728	     12.20263522	      9.55243633	     -7.51212653	    -43.44399912	     -2.91234822	     -1.59748781	      8.88403015	    -10.51539095	      3.80719730	     38.68256651	     90.00000001	      0.00000000	      0.00000000	     -5.33164994	    -10.65866183	     15.11550059	     43.38236069	     90.00000001	      0.00000000	      0.00000000
      2.24000000	     12.93993598	      2.53232635	      4.38903178	     -0.37487710	      0.91888876	      0.28527324	    -24.93919873	      0.23563410	    -34.90615580	     26.75024089	    -10.38348392	      0.46687978	     23.51279663	     31.46473957	     -7.51191873	     17.08650594	      6.49669038	    -13.31405191	     36.79872251	    -10.24095098	      0.64225887	     12.63487008	      8.61455096	     -7.51191873	    -43.30859212	     -3.02751580	     -1.64458369	      8.50425090	    -10.44354353	      4.10822975	     38.62359699	     90.00000001	      0.00000000	      0.00000000	     -5.26453962	    -10.73539200	     15.08509388	     43.40707264	     90.00000001	      0.00000000	      0.00000000
      2.25000000	     12.74161929	      2.52964701	      4.49512916	     -0.36710525	      0.91960516	      0.28371055	    -24.14098426	     -0.02184027	    -34.28712619	     28.66573941	    -10.70383346	      0.50031154	     21.65963251	     29.33961614	     -7.51120910	     16.74002549	      6.67604235	    -12.53923626	     36.98100662	     -9.92648364	      0.64544033	     12.81127220	      7.07370489	     -7.51120910	    -43.04712766	     -3.11042659	     -1.69322997	      8.10734324	    -10.50406481	      5.00108053	     38.67381542	     90.00000001	      0.00000000	      0.00000000	     -5.29250127	    -10.82372210	     15.04124581	     43.41603171	     90.00000001	      0.00000000	      0.00000000
